<?xml version="1.0" encoding="utf-8"?>
<!-- Generator: Adobe Illustrator 23.1.1, SVG Export Plug-In . SVG Version: 6.00 Build 0)  -->
<svg version="1.1" id="Layer_1" xmlns="http://www.w3.org/2000/svg" xmlns:xlink="http://www.w3.org/1999/xlink" x="0px" y="0px"
	 viewBox="98 98 166 166" style="enable-background:new 98 98 166 166;" xml:space="preserve">
<style type="text/css">
	.st0{fill:#FAA819;stroke:#FAA81A;stroke-width:0.25;stroke-miterlimit:10;}
</style>
<g>
	<path class="st0" d="M180,113.76c-45.03,0-81.67,24.75-81.67,55.18v28.36c0,10.01,4.44,19.37,12.17,25.67
		c12.03,9.81,26.74,16.71,42.85,20.34h0c8.55,1.92,17.49,2.94,26.64,2.94s18.09-1.02,26.64-2.94h0
		c16.11-3.63,30.82-10.53,42.85-20.34c7.73-6.31,12.17-15.66,12.17-25.67v-28.35C261.67,138.51,225.03,113.76,180,113.76z
		 M124.08,221.87c-2.79-1.78-5.47-3.69-8-5.76c-5.67-4.62-8.92-11.48-8.92-18.83v-3.45c4.31,5.73,10.06,10.89,16.92,15.26V221.87z
		 M149.83,233.32c-5.92-1.67-11.58-3.83-16.92-6.46v-12.88c5.22,2.5,10.89,4.6,16.92,6.22V233.32z M175.59,237.33
		c-5.77-0.22-11.43-0.87-16.92-1.93v-13.21c5.44,1,11.1,1.63,16.92,1.84V237.33z M201.34,235.4c-5.49,1.05-11.15,1.71-16.92,1.93
		v-13.29c5.82-0.21,11.48-0.84,16.92-1.84V235.4z M252.84,197.29c0,7.34-3.25,14.21-8.92,18.83c-2.53,2.07-5.22,3.97-8,5.76v-2.17
		c0-2.44-1.98-4.41-4.41-4.41c-2.44,0-4.41,1.98-4.41,4.41v7.16c-5.34,2.63-11.01,4.8-16.92,6.46V220.2
		c18.51-4.99,33.7-14.43,42.67-26.35V197.29z M205,212.47c-0.11,0.02-0.21,0.04-0.31,0.07c-7.71,1.77-16.03,2.75-24.69,2.75
		s-16.98-0.97-24.69-2.75c-0.1-0.03-0.21-0.05-0.31-0.07c-27.88-6.5-47.84-23.57-47.84-43.54c0-25.56,32.68-46.35,72.84-46.35
		s72.84,20.79,72.84,46.35C252.84,188.91,232.89,205.97,205,212.47z"/>
	<path class="st0" d="M196.31,130.14c-2.36-0.6-4.77,0.83-5.36,3.2c-0.6,2.36,0.83,4.76,3.2,5.36c21.56,5.45,36.04,17.6,36.04,30.24
		c0,3.92-1.38,7.82-4.09,11.59c-2.75,3.81-6.71,7.31-11.79,10.42c-2.08,1.27-2.73,3.99-1.46,6.07c0.83,1.36,2.28,2.11,3.77,2.11
		c0.78,0,1.58-0.21,2.3-0.65c6.08-3.72,10.91-8.02,14.34-12.79c3.82-5.31,5.76-10.95,5.76-16.76
		C239.01,151.93,222.25,136.7,196.31,130.14z"/>
</g>
</svg>
