<?xml version="1.0" encoding="UTF-8"?><svg width="200px" height="230px" viewBox="0 0 200 230" version="1.1" xmlns="http://www.w3.org/2000/svg" xmlns:xlink="http://www.w3.org/1999/xlink"><title>JWT</title><desc>JWT for Craft CMS (by Flipbox)</desc><defs><linearGradient x1="0%" y1="0%" x2="50%" y2="100%" id="linearGradient-1"><stop stop-color="#F0461D" offset="0%"></stop><stop stop-color="#FF2078" offset="100%"></stop></linearGradient></defs><g id="Page-1" stroke="none" stroke-width="1" fill="none" fill-rule="evenodd"><g id="JWT" fill-rule="nonzero"><g id="Icon"><polygon id="Polygon" fill="url(#linearGradient-1)" points="100 0 200 57.5 200 172.5 100 230 0 172.5 0 57.5"></polygon><g id="Group" transform="translate(46.500000, 70.500000)" fill="#FFFFFF"><polygon id="Shape" points="0.109062008 78.0156894 33.4456823 78.0156894 33.4456823 89.1036602 24.5753057 89.1036602 24.5753057 93.5388485 82.3054617 93.5388485 82.3054617 89.1036602 73.4350851 89.1036602 73.4350851 78.0156894 106.771705 78.0156894 106.771705 64.6737705 0.109062008 64.6737705"></polygon><path d="M0.109062008,0.254478018 L0.109062008,60.2385822 L106.735351,60.2385822 L106.735351,0.254478018 L0.109062008,0.254478018 Z M95.6473806,46.8966633 L11.2333868,46.8966633 L11.2333868,15.7776371 L95.6473806,15.7776371 L95.6473806,46.8966633 Z" id="Shape"></path><polygon id="Shape" points="20.2128254 37.6991006 24.5753057 35.1906744 24.5753057 40.2075268 29.010494 40.2075268 29.010494 35.1906744 33.3729743 37.6991006 35.5905685 33.8455763 31.2280882 31.3371502 35.5905685 28.828724 33.3729743 24.9751997 29.010494 27.4836259 29.010494 22.4667736 24.5753057 22.4667736 24.5753057 27.4836259 20.2128254 24.9751997 17.9588772 28.828724 22.3213575 31.3371502 17.9588772 33.8455763"></polygon><polygon id="Shape" points="46.8603093 37.6991006 51.2227896 35.1906744 51.2227896 40.2075268 55.6579779 40.2075268 55.6579779 35.1906744 60.0204582 37.6991006 62.2380523 33.8455763 57.875572 31.3371502 62.2380523 28.828724 60.0204582 24.9751997 55.6579779 27.4836259 55.6579779 22.4667736 51.2227896 22.4667736 51.2227896 27.4836259 46.8603093 24.9751997 44.6427151 28.828724 49.0051954 31.3371502 44.6427151 33.8455763"></polygon><polygon id="Shape" points="73.5077931 37.6991006 77.8702734 35.1906744 77.8702734 40.2075268 82.3054617 40.2075268 82.3054617 35.1906744 86.667942 37.6991006 88.9218902 33.8455763 84.5594099 31.3371502 88.9218902 28.828724 86.667942 24.9751997 82.3054617 27.4836259 82.3054617 22.4667736 77.8702734 22.4667736 77.8702734 27.4836259 73.5077931 24.9751997 71.2901989 28.828724 75.6526792 31.3371502 71.2901989 33.8455763"></polygon></g></g></g></g></svg>