<?xml version="1.0" encoding="utf-8"?>
<!-- Generator: Adobe Illustrator 23.1.1, SVG Export Plug-In . SVG Version: 6.00 Build 0)  -->
<svg version="1.1" id="Layer_1" xmlns="http://www.w3.org/2000/svg" xmlns:xlink="http://www.w3.org/1999/xlink" x="0px" y="0px"
	 viewBox="40 40 280 280" style="enable-background:new 40 40 280 280;" xml:space="preserve">
<style type="text/css">
	.st0{fill:#FAA819;}
	.st1{fill:#FDB84B;}
	.st2{fill:#FFFFFF;}
</style>
<g>
	<path class="st0" d="M194.86,217.57v-8.5c-3.67,0.65-7.42,1.05-11.18,1.21v8.57C187.43,218.69,191.18,218.26,194.86,217.57z"/>
	<path class="st0" d="M176.32,218.85v-8.57c-3.76-0.16-7.51-0.56-11.18-1.21v8.5C168.82,218.26,172.57,218.69,176.32,218.85z"/>
	<path class="st0" d="M225.7,203.72c3.96-3.23,6.24-8.03,6.24-13.16v-1.03c-6.59,8.1-17.07,14.43-29.72,17.9v8.4
		c3.89-1.13,7.65-2.58,11.18-4.3v-4.84c0-2.03,1.65-3.68,3.68-3.68c2.03,0,3.68,1.65,3.68,3.68v0.64
		C222.55,206.15,224.17,204.96,225.7,203.72z"/>
	<path class="st0" d="M180,137.27c-28.64,0-51.94,14.75-51.94,32.87c0,13.7,13.68,26.1,34.05,30.86l0.23,0.05
		c11.32,2.61,24,2.61,35.32,0c0.07-0.02,0.15-0.04,0.23-0.05c20.36-4.75,34.04-17.15,34.04-30.85
		C231.94,152.02,208.64,137.27,180,137.27z M218.74,182.5c-2.51,3.48-6.03,6.63-10.47,9.34c-0.58,0.35-1.24,0.54-1.92,0.54
		c-1.29,0-2.47-0.66-3.14-1.76c-1.06-1.73-0.51-4,1.21-5.06c3.6-2.21,6.41-4.68,8.34-7.37c1.89-2.63,2.85-5.34,2.85-8.05
		c0-8.86-10.27-17.42-25.57-21.29c-0.95-0.24-1.75-0.84-2.26-1.68c-0.5-0.84-0.65-1.83-0.4-2.78c0.24-0.95,0.84-1.75,1.68-2.26
		c0.85-0.5,1.84-0.65,2.79-0.41c18.9,4.78,31.12,15.94,31.12,28.42C222.98,174.43,221.55,178.59,218.74,182.5z"/>
	<path class="st0" d="M157.78,215.83v-8.4c-3.93-1.08-7.68-2.45-11.18-4.07v8.17C150.14,213.25,153.9,214.7,157.78,215.83z"/>
	<path class="st0" d="M128.06,190.55c0,5.14,2.27,9.94,6.24,13.17c1.51,1.23,3.17,2.44,4.94,3.61v-8
		c-4.47-2.87-8.23-6.17-11.18-9.81V190.55z"/>
	<path class="st0" d="M253.94,140.99c-2.17,0-4.27-1.18-5.33-3.24c-1.52-2.94-0.37-6.56,2.57-8.08l36.9-19.09L180,48.17
		l-108.08,62.4l36.9,19.09c2.94,1.52,4.09,5.14,2.57,8.08c-1.07,2.06-3.16,3.24-5.33,3.24c-0.93,0-1.87-0.22-2.75-0.67l-37.48-19.39
		v124.99L174,308.37v-54.88c0-3.31,2.69-6,6-6s6,2.69,6,6v54.89l108.17-62.45V120.92l-37.48,19.39
		C255.81,140.77,254.87,140.99,253.94,140.99z M239.29,190.55c0,7.36-3.26,14.23-8.94,18.87c-8.59,7.01-19.33,12.1-31.06,14.74
		c-6.28,1.41-12.77,2.13-19.29,2.13s-13.01-0.72-19.29-2.13c-11.72-2.64-22.46-7.74-31.06-14.74c-5.69-4.63-8.95-11.51-8.95-18.87
		v-20.41c0-22.18,26.6-40.23,59.29-40.23s59.29,18.04,59.29,40.23V190.55z"/>
	<path class="st1" d="M180,247.48c-3.31,0-6,2.69-6,6v54.88l6,3.46l6-3.46v-54.89C186,250.17,183.31,247.48,180,247.48z"/>
	<path class="st1" d="M106.06,140.99c2.17,0,4.27-1.18,5.33-3.24c1.52-2.94,0.37-6.56-2.57-8.08l-36.9-19.09l-6.09,3.52v6.84
		l37.48,19.39C104.19,140.77,105.13,140.99,106.06,140.99z"/>
	<path class="st1" d="M288.08,110.57l-36.9,19.09c-2.94,1.52-4.09,5.14-2.57,8.08c1.07,2.06,3.16,3.24,5.33,3.24
		c0.93,0,1.87-0.22,2.75-0.67l37.48-19.39v-6.84L288.08,110.57z"/>
	<path class="st2" d="M180,129.92c-32.69,0-59.29,18.04-59.29,40.23v20.41c0,7.36,3.26,14.23,8.95,18.87
		c8.59,7.01,19.34,12.1,31.06,14.74c6.28,1.41,12.77,2.13,19.29,2.13s13.01-0.72,19.29-2.13c11.72-2.64,22.46-7.74,31.06-14.74
		c5.68-4.63,8.94-11.51,8.94-18.87v-20.41C239.29,147.96,212.69,129.92,180,129.92z M176.32,210.28v8.57
		c-3.75-0.16-7.5-0.6-11.18-1.28v-8.5C168.81,209.72,172.57,210.13,176.32,210.28z M157.78,207.43v8.4
		c-3.88-1.13-7.64-2.58-11.18-4.3v-8.17C150.1,204.98,153.86,206.35,157.78,207.43z M139.25,199.33v8
		c-1.78-1.17-3.44-2.38-4.94-3.61c-3.97-3.23-6.24-8.03-6.24-13.17v-1.03C131.02,193.16,134.78,196.45,139.25,199.33z
		 M231.94,170.14c0,13.7-13.68,26.1-34.04,30.85c-0.08,0.02-0.16,0.03-0.23,0.05c-11.33,2.61-24,2.61-35.32,0l-0.23-0.05
		c-20.37-4.75-34.05-17.15-34.05-30.86c0-18.12,23.3-32.87,51.94-32.87S231.94,152.02,231.94,170.14z M194.86,209.08v8.5
		c-3.68,0.68-7.43,1.12-11.18,1.28v-8.57C187.44,210.13,191.19,209.72,194.86,209.08z M217.08,203.01c-2.03,0-3.68,1.65-3.68,3.68
		v4.84c-3.53,1.72-7.29,3.17-11.18,4.3v-8.4c12.65-3.48,23.13-9.8,29.72-17.9v1.03c0,5.14-2.27,9.93-6.24,13.16
		c-1.53,1.25-3.15,2.43-4.94,3.61v-0.64C220.75,204.66,219.1,203.01,217.08,203.01z"/>
	<path class="st2" d="M191.86,141.72c-0.95-0.24-1.94-0.1-2.79,0.41c-0.84,0.5-1.44,1.31-1.68,2.26c-0.24,0.95-0.1,1.94,0.4,2.78
		c0.5,0.84,1.3,1.44,2.26,1.68c15.29,3.87,25.57,12.42,25.57,21.29c0,2.72-0.96,5.43-2.85,8.05c-1.94,2.69-4.74,5.16-8.34,7.37
		c-1.73,1.06-2.27,3.33-1.21,5.06c0.67,1.1,1.85,1.76,3.14,1.76c0.67,0,1.34-0.19,1.92-0.54c4.44-2.71,7.96-5.86,10.47-9.34
		c2.81-3.91,4.24-8.07,4.24-12.36C222.98,157.66,210.77,146.5,191.86,141.72z"/>
</g>
</svg>
